<svg id="Layer_1" enable-background="new 0 0 512 512" height="512" viewBox="0 0 512 512" width="512" xmlns="http://www.w3.org/2000/svg"><g><path d="m39.097 417.655c4.143 0 7.5-3.357 7.5-7.5v-175.44c0-4.359 3.539-7.905 7.89-7.905h76.513c4.143 0 7.5-3.357 7.5-7.5s-3.357-7.5-7.5-7.5h-76.513c-12.621 0-22.89 10.275-22.89 22.905v175.44c0 4.142 3.358 7.5 7.5 7.5z"/><path d="m114.669 456.72c-12.631 0-23.309 8.531-26.583 20.139h-33.6c-4.351 0-7.89-3.546-7.89-7.905v-24.37c0-4.143-3.357-7.5-7.5-7.5s-7.5 3.357-7.5 7.5v24.37c0 12.63 10.269 22.905 22.89 22.905h33.6c3.274 11.608 13.952 20.14 26.583 20.14 15.228 0 27.616-12.399 27.616-27.64.001-15.241-12.388-27.639-27.616-27.639zm0 40.278c-6.957 0-12.616-5.67-12.616-12.64 0-6.969 5.659-12.639 12.616-12.639s12.616 5.67 12.616 12.639c.001 6.97-5.659 12.64-12.616 12.64z"/><path d="m457.513 211.81h-76.513c-4.143 0-7.5 3.357-7.5 7.5s3.357 7.5 7.5 7.5h76.514c4.351 0 7.89 3.546 7.89 7.905v234.238c0 4.359-3.539 7.905-7.89 7.905h-33.601c-3.274-11.607-13.951-20.139-26.583-20.139-15.228 0-27.616 12.398-27.616 27.639 0 15.24 12.389 27.64 27.616 27.64 12.631 0 23.309-8.532 26.583-20.14h33.601c12.621 0 22.89-10.275 22.89-22.905v-234.238c-.001-12.63-10.27-22.905-22.891-22.905zm-60.183 285.188c-6.957 0-12.616-5.67-12.616-12.64 0-6.969 5.659-12.639 12.616-12.639s12.616 5.67 12.616 12.639c0 6.97-5.659 12.64-12.616 12.64z"/><path d="m274.514 457.09h-24.884l14.68-29.303c1.854-3.703.356-8.21-3.347-10.065-3.702-1.854-8.209-.356-10.065 3.347l-20.119 40.162c-1.164 2.325-1.042 5.088.324 7.3 1.367 2.213 3.781 3.56 6.382 3.56h25.282l-13.571 29.252c-1.743 3.758-.11 8.217 3.647 9.96 1.021.474 2.095.698 3.151.698 2.83 0 5.539-1.609 6.809-4.346l18.515-39.908c1.077-2.322.896-5.034-.482-7.192-1.378-2.159-3.761-3.465-6.322-3.465z"/><path d="m70.011 191.074c.831 3.433 3.9 5.737 7.283 5.737.584 0 1.178-.069 1.771-.213 4.026-.975 6.499-5.028 5.524-9.054l-4.057-16.76h45.665c4.143 0 7.5-3.357 7.5-7.5s-3.357-7.5-7.5-7.5h-47.697v-35h206.693c4.143 0 7.5-3.357 7.5-7.5s-3.357-7.5-7.5-7.5h-20.567l6.236-63.448 59.518-5.175 11.195 68.624h-21.567c-4.143 0-7.5 3.357-7.5 7.5s3.357 7.5 7.5 7.5h113.492v35h-272.194c-4.143 0-7.5 3.357-7.5 7.5s3.357 7.5 7.5 7.5h270.161l-4.058 16.76c-.975 4.025 1.498 8.079 5.524 9.054.593.144 1.187.213 1.771.213 3.383 0 6.452-2.305 7.283-5.737l6.301-26.024c.141-.578.211-1.17.211-1.765v-50c0-4.143-3.357-7.5-7.5-7.5h-26.571l-16.538-67.982c-.521-2.142-1.957-3.945-3.927-4.933-1.971-.987-4.273-1.06-6.302-.194l-40.031 17.064-3.566-21.86c-.632-3.872-4.141-6.609-8.052-6.265l-69.056 6.004-24.035-25.287c-1.416-1.489-3.38-2.333-5.436-2.333h-116.089c-2.415 0-4.683 1.163-6.092 3.125s-1.787 4.481-1.016 6.77l18.366 54.492-30.113 41.398h-31.541c-4.143 0-7.5 3.357-7.5 7.5v50c0 .595.07 1.187.211 1.765zm315.396-141.13 13.585 55.842h-42.219l-6.656-40.799zm-253.569-34.944h102.428l21.941 23.086-5.354 54.47-31.343-44.224c-1.422-2.005-3.714-3.163-6.118-3.163-.439 0-.884.038-1.326.118l-66.025 11.852zm13.454 57.514 64.735-11.622 31.818 44.893h-120.754z"/><path d="m383.905 336.001c13.539 0 25.221-9.19 28.406-22.35l15.15-62.577c.975-4.025-1.498-8.079-5.524-9.054-4.027-.975-8.079 1.499-9.054 5.524l-15.15 62.577c-1.551 6.405-7.237 10.879-13.828 10.879h-6.079c-3.545-19.502-20.655-34.337-41.164-34.337s-37.619 14.834-41.164 34.337h-78.997c-3.545-19.502-20.654-34.337-41.164-34.337s-37.619 14.834-41.164 34.337h-6.079c-6.591 0-12.277-4.474-13.828-10.879l-15.15-62.577c-.975-4.025-5.027-6.499-9.054-5.524-4.026.975-6.499 5.028-5.524 9.054l15.15 62.577c3.186 13.159 14.867 22.35 28.406 22.35h6.079c3.544 19.503 20.654 34.339 41.164 34.339s37.62-14.835 41.164-34.339h78.996c3.544 19.503 20.654 34.339 41.164 34.339s37.62-14.835 41.164-34.339zm-208.568 19.338c-14.799 0-26.838-12.039-26.838-26.838s12.039-26.838 26.838-26.838 26.838 12.039 26.838 26.838-12.039 26.838-26.838 26.838zm161.325 0c-14.799 0-26.838-12.039-26.838-26.838s12.039-26.838 26.838-26.838 26.838 12.039 26.838 26.838-12.04 26.838-26.838 26.838z"/></g></svg>