<svg id="Capa_1" enable-background="new 0 0 512 512" height="512" viewBox="0 0 512 512" width="512" xmlns="http://www.w3.org/2000/svg"><g><path d="m143.419 340.999c1.625 2.815 3.504 5.424 5.602 7.837l-23.021 23.021v-15.857c0-5.522-4.477-10-10-10s-10 4.478-10 10v40c0 5.522 4.477 10 10 10h40c5.523 0 10-4.478 10-10s-4.477-10-10-10h-15.857l24.931-24.931c14.861 7.119 32.354 6.489 46.642-1.766.001 0 .002-.001.003-.002 8.414 16.086 25.196 26.699 44.281 26.699 19.09 0 35.877-10.62 44.286-26.697 14.273 8.243 31.754 8.893 46.639 1.765l24.932 24.932h-15.857c-5.523 0-10 4.478-10 10s4.477 10 10 10h40c5.523 0 10-4.478 10-10v-40c0-5.522-4.477-10-10-10s-10 4.478-10 10v15.857l-23.021-23.021c2.097-2.412 3.976-5.021 5.6-7.834 13.821-23.926 5.639-54.484-18.298-68.301 9.726-15.335 10.525-35.179.979-51.702-9.541-16.52-27.122-25.75-45.26-25.003-.002-27.568-22.431-49.996-50-49.996s-49.997 22.427-50 49.995c-18.137-.748-35.719 8.483-45.259 25.002-9.549 16.528-8.748 36.376.975 51.706-23.928 13.812-32.118 44.369-18.297 68.296zm142.158.014c-2.419 14.478-14.857 24.987-29.577 24.987s-27.158-10.509-29.583-25.021c-1.275-7.485.377-15.257 4.654-21.655 7.532 4.34 16.11 6.677 24.928 6.677 8.82 0 17.401-2.338 24.929-6.676 4.197 6.277 5.956 14.018 4.649 21.688zm-29.577-35.013c-16.451 0-30-13.355-30-30 0-16.61 13.445-30 30-30 16.475 0 30 13.314 30 30 0 16.646-13.552 30-30 30zm95.259 25.001c-8.415 14.578-26.877 19.129-40.984 10.976-1.558-.898-3.01-1.939-4.369-3.087.704-12.173-3.043-23.716-9.924-32.893 2.399-3.2 4.413-6.682 5.992-10.357 10.733 1.291 21.61-.925 30.98-6.337.838-.483 1.655-.998 2.461-1.527 17.855 6.454 25.093 27.214 15.844 43.225zm-58.289-110.986c14.248-8.252 32.579-3.544 40.971 10.988 8.368 14.484 3.343 32.716-10.982 40.977-5.185 2.994-11.096 4.333-16.961 3.951-.025-18.08-9.724-34.413-24.933-43.207 2.604-5.268 6.719-9.715 11.905-12.709zm-36.97-54.015c16.542 0 30 13.458 30 30 0 1.798-.175 3.578-.49 5.333-.861.434-1.714.883-2.55 1.367-9.436 5.448-16.748 13.794-20.967 23.658-1.98-.237-3.98-.358-5.993-.358s-4.013.121-5.993.358c-4.546-10.63-12.692-19.57-23.518-25.025-.314-1.755-.49-3.535-.49-5.333.001-16.542 13.459-30 30.001-30zm-77.94 65.001c7.343-12.715 22.612-18.241 36.337-13.166.045.018.087.04.133.057 6.816 2.515 12.885 7.708 16.405 14.832-15.209 8.794-24.908 25.127-24.933 43.207-7.679.5-15.236-1.966-21.091-6.816-11.332-9.343-14.214-25.371-6.851-38.114zm-1.476 56.775c8.422 5.525 17.947 8.222 27.467 8.222 1.992 0 3.986-.12 5.973-.359 1.578 3.675 3.593 7.158 5.993 10.359-6.862 9.152-10.628 20.687-9.923 32.891-14.322 12.094-36.022 8.277-45.354-7.892-9.243-15.998-2.021-36.762 15.844-43.221z"/><path d="m255.972 59.94c-12.264-20.321-34.555-33.94-59.972-33.94-5.523 0-10 4.478-10 10s4.477 10 10 10c26.106 0 47.59 20.114 49.799 45.657l-2.728-2.728c-3.905-3.904-10.237-3.904-14.143 0-3.905 3.905-3.905 10.237 0 14.143l20 20c3.906 3.905 10.237 3.905 14.143 0l20-20c3.905-3.905 3.905-10.237 0-14.143-3.905-3.904-10.237-3.904-14.143 0l-2.732 2.732c1.021-12.015 6.263-23.109 15.04-31.6 3.969-3.84 4.073-10.171.233-14.14-3.841-3.971-10.171-4.074-14.141-.233-4.452 4.308-8.245 9.1-11.356 14.252z"/><path d="m50 512c27.57 0 50-22.43 50-50s-22.43-50-50-50-50 22.43-50 50 22.43 50 50 50zm0-80c16.542 0 30 13.458 30 30s-13.458 30-30 30-30-13.458-30-30 13.458-30 30-30z"/><path d="m462 412c-27.57 0-50 22.43-50 50s22.43 50 50 50 50-22.43 50-50-22.43-50-50-50zm0 80c-16.542 0-30-13.458-30-30s13.458-30 30-30 30 13.458 30 30-13.458 30-30 30z"/><path d="m90 0c-24.445 0-44.835 17.638-49.147 40.853-23.215 4.312-40.853 24.702-40.853 49.147 0 27.57 22.43 50 50 50 24.445 0 44.835-17.638 49.147-40.853 23.215-4.312 40.853-24.702 40.853-49.147 0-27.57-22.43-50-50-50zm-40 120c-16.542 0-30-13.458-30-30 0-13.518 8.989-24.971 21.301-28.709 4.292 18.517 18.891 33.116 37.408 37.408-3.738 12.312-15.191 21.301-28.709 21.301zm40-40c-16.542 0-30-13.458-30-30s13.458-30 30-30 30 13.458 30 30-13.458 30-30 30z"/><path d="m462 20c-6.128 0-12.127 1.111-17.759 3.25-9.033-14.24-24.885-23.25-42.241-23.25-27.57 0-50 22.43-50 50s22.43 50 50 50c6.134 0 12.14-1.113 17.78-3.258.706 1.113 1.448 2.202 2.239 3.255-6.442 8.589-10.019 19.101-10.019 30.003 0 27.57 22.43 50 50 50s50-22.43 50-50c0-10.903-3.577-21.415-10.019-30.004 6.442-8.582 10.019-19.091 10.019-29.996 0-27.57-22.43-50-50-50zm-60 60c-16.542 0-30-13.458-30-30s13.458-30 30-30c16.453 0 30 13.34 30 30 0 16.447-13.305 30-30 30zm60 80c-16.542 0-30-13.458-30-30 0-5.988 1.8-11.781 5.07-16.674 7.526 4.339 16.105 6.674 24.93 6.674 8.82 0 17.4-2.337 24.929-6.676 3.271 4.894 5.071 10.687 5.071 16.676 0 16.542-13.458 30-30 30zm0-60c-10.236 0-19.789-5.211-25.343-13.971 9.722-9.352 15.343-22.292 15.343-36.029 0-2.714-.223-5.402-.652-8.051 3.376-1.281 6.974-1.949 10.652-1.949 16.542 0 30 13.458 30 30 0 16.571-13.482 30-30 30z"/><path d="m426 276c0 5.522 4.477 10 10 10h40c5.523 0 10-4.478 10-10s-4.477-10-10-10h-40c-5.523 0-10 4.478-10 10z"/><path d="m86 276c0-5.522-4.477-10-10-10h-40c-5.523 0-10 4.478-10 10s4.477 10 10 10h40c5.523 0 10-4.478 10-10z"/><path d="m408.929 323.071 20 20c3.906 3.905 10.237 3.905 14.143 0 3.905-3.905 3.905-10.237 0-14.143l-20-20c-3.905-3.904-10.237-3.904-14.143 0-3.905 3.906-3.905 10.238 0 14.143z"/><path d="m428.929 208.929-20 20c-3.905 3.905-3.905 10.237 0 14.143 3.906 3.905 10.237 3.905 14.143 0l20-20c3.905-3.905 3.905-10.237 0-14.143-3.906-3.905-10.238-3.905-14.143 0z"/><path d="m103.071 228.929-20-20c-3.905-3.904-10.237-3.904-14.143 0-3.905 3.905-3.905 10.237 0 14.143l20 20c3.906 3.905 10.237 3.905 14.143 0 3.905-3.906 3.905-10.238 0-14.143z"/><path d="m83.071 343.071 20-20c3.905-3.905 3.905-10.237 0-14.143-3.905-3.904-10.237-3.904-14.143 0l-20 20c-3.905 3.905-3.905 10.237 0 14.143 3.907 3.906 10.238 3.905 14.143 0z"/><circle cx="316" cy="36" r="10"/></g></svg>