<?xml version="1.0" encoding="iso-8859-1"?>
<!-- Generator: Adobe Illustrator 19.0.0, SVG Export Plug-In . SVG Version: 6.00 Build 0)  -->
<svg version="1.1" id="Capa_1" xmlns="http://www.w3.org/2000/svg" xmlns:xlink="http://www.w3.org/1999/xlink" x="0px" y="0px"
	 viewBox="0 0 512 512" style="enable-background:new 0 0 512 512;" xml:space="preserve">
<g>
	<g>
		<path d="M437.02,74.98C388.667,26.629,324.38,0,256,0S123.333,26.629,74.98,74.98C26.629,123.333,0,187.62,0,256
			s26.629,132.667,74.98,181.02C123.333,485.371,187.62,512,256,512s132.667-26.629,181.02-74.98
			C485.371,388.667,512,324.38,512,256S485.371,123.333,437.02,74.98z M256,482C131.383,482,30,380.617,30,256S131.383,30,256,30
			s226,101.383,226,226S380.617,482,256,482z"/>
	</g>
</g>
<g>
	<g>
		<path d="M256,211c-24.813,0-45,20.187-45,45s20.187,45,45,45s45-20.187,45-45S280.813,211,256,211z M256,271
			c-8.271,0-15-6.729-15-15s6.729-15,15-15s15,6.729,15,15S264.271,271,256,271z"/>
	</g>
</g>
<g>
	<g>
		<path d="M306.468,313.413l-13,7.534C282.121,327.523,269.165,331,256,331c-13.165,0-26.121-3.477-37.468-10.053l-13-7.534
			l-60.528,104.838l12.972,7.505C187.65,442.925,221.547,452,256,452s68.35-9.075,98.024-26.244l12.972-7.505L306.468,313.413z
			 M256,422c-24.146,0-47.959-5.257-69.686-15.301l30.718-53.206C229.372,358.431,242.612,361,256,361s26.628-2.569,38.967-7.507
			l30.718,53.206C303.959,416.743,280.146,422,256,422z"/>
	</g>
</g>
<g>
	<g>
		<path d="M425.741,158c-17.226-29.838-42.034-54.655-71.74-71.77l-12.985-7.481l-60.529,104.838l13.024,7.491
			c11.37,6.539,20.859,16.021,27.44,27.422c6.582,11.4,10.05,24.359,10.028,37.476L330.955,271h121.056l0.014-14.986
			C452.057,221.73,442.968,187.838,425.741,158z M359.915,241c-1.894-13.154-6.288-25.905-12.982-37.5
			c-6.694-11.594-15.54-21.775-25.985-29.993l30.719-53.206c19.562,13.793,36.021,31.788,48.094,52.699s19.427,44.163,21.592,68
			H359.915z"/>
	</g>
</g>
<g>
	<g>
		<path d="M170.984,78.749l-12.985,7.481c-29.706,17.114-54.514,41.932-71.74,71.77c-17.228,29.838-26.316,63.73-26.284,98.014
			L59.989,271h121.056l-0.024-15.024c-0.022-13.116,3.446-26.075,10.027-37.476c6.582-11.4,16.071-20.883,27.441-27.422
			l13.024-7.491L170.984,78.749z M165.067,203.5c-6.693,11.595-11.088,24.346-12.981,37.5H90.648
			c2.165-23.837,9.519-47.089,21.592-68s28.532-38.906,48.094-52.699l30.719,53.206C180.607,181.725,171.761,191.906,165.067,203.5z
			"/>
	</g>
</g>
<g>
</g>
<g>
</g>
<g>
</g>
<g>
</g>
<g>
</g>
<g>
</g>
<g>
</g>
<g>
</g>
<g>
</g>
<g>
</g>
<g>
</g>
<g>
</g>
<g>
</g>
<g>
</g>
<g>
</g>
</svg>
